<svg width="16" height="16" viewBox="0 0 16 16" fill="none" xmlns="http://www.w3.org/2000/svg">
<path d="M3.66667 0.666672C3.11438 0.666672 2.66667 1.11439 2.66667 1.66667V14.3333C2.66667 14.8856 3.11438 15.3333 3.66667 15.3333H12.3333C12.8856 15.3333 13.3333 14.8856 13.3333 14.3333V4.66667L9.33333 0.666672H3.66667Z" fill="#4E8DF5"/>
<path d="M3.66667 15.3333C3.11438 15.3333 2.66667 14.8856 2.66667 14.3333V14.1667C2.66667 14.719 3.11438 15.1667 3.66667 15.1667H12.3333C12.8856 15.1667 13.3333 14.719 13.3333 14.1667V14.3333C13.3333 14.8856 12.8856 15.3333 12.3333 15.3333H3.66667Z" fill="#417EE9"/>
<path d="M3.66667 0.666672C3.11438 0.666672 2.66667 1.11439 2.66667 1.66667V1.83334C2.66667 1.28105 3.11438 0.833338 3.66667 0.833338H9.5L9.33333 0.666672H3.66667Z" fill="#639AF6"/>
<path d="M13.3333 8.08333V4.66666L12.75 4.08333H9.93689C9.71416 4.08333 9.60262 4.35261 9.76011 4.51011L13.3333 8.08333Z" fill="url(#paint0_linear_7_208)"/>
<path d="M9.33334 0.666672L13.3333 4.66667H10.3333C9.78105 4.66667 9.33334 4.21896 9.33334 3.66667V0.666672Z" fill="#A6C5FA"/>
<path d="M10.6667 8H5.33333V8.66667H10.6667V8Z" fill="white"/>
<path d="M10.6667 9.33333H5.33333V10H10.6667V9.33333Z" fill="white"/>
<path d="M5.33333 10.6667H10.6667V11.3333H5.33333V10.6667Z" fill="white"/>
<path d="M9.33333 12H5.33333V12.6667H9.33333V12Z" fill="white"/>
<defs>
<linearGradient id="paint0_linear_7_208" x1="11.3333" y1="8.08333" x2="11.3333" y2="3.99999" gradientUnits="userSpaceOnUse">
<stop stop-color="#4E8DF5"/>
<stop offset="1" stop-color="#3D6ACD"/>
</linearGradient>
</defs>
</svg>
