<svg width="21" height="24" viewBox="0 0 21 24" fill="none" xmlns="http://www.w3.org/2000/svg">
<path d="M14.5002 16C14.5002 16.2652 14.3948 16.5196 14.2073 16.7071C14.0197 16.8946 13.7654 17 13.5002 17H11.5002V19C11.5002 19.2652 11.3948 19.5196 11.2073 19.7071C11.0197 19.8946 10.7654 20 10.5002 20C10.2349 20 9.98058 19.8946 9.79305 19.7071C9.60551 19.5196 9.50015 19.2652 9.50015 19V17H7.50015C7.23494 17 6.98058 16.8946 6.79305 16.7071C6.60551 16.5196 6.50015 16.2652 6.50015 16C6.50015 15.7348 6.60551 15.4804 6.79305 15.2929C6.98058 15.1053 7.23494 15 7.50015 15H9.50015V13C9.50015 12.7348 9.60551 12.4804 9.79305 12.2929C9.98058 12.1053 10.2349 12 10.5002 12C10.7654 12 11.0197 12.1053 11.2073 12.2929C11.3948 12.4804 11.5002 12.7348 11.5002 13V15H13.5002C13.7654 15 14.0197 15.1053 14.2073 15.2929C14.3948 15.4804 14.5002 15.7348 14.5002 16ZM20.5002 10.485V19C20.4986 20.3256 19.9713 21.5964 19.0339 22.5338C18.0966 23.4711 16.8257 23.9984 15.5002 24H5.50015C4.17456 23.9984 2.90371 23.4711 1.96637 22.5338C1.02903 21.5964 0.50174 20.3256 0.500153 19V4.99999C0.50174 3.6744 1.02903 2.40355 1.96637 1.46621C2.90371 0.528874 4.17456 0.00158039 5.50015 -7.4689e-06H10.0152C10.9348 -0.00237439 11.8457 0.17758 12.6954 0.529452C13.545 0.881323 14.3165 1.39813 14.9652 2.04999L18.4492 5.53599C19.1014 6.18423 19.6185 6.95545 19.9706 7.80497C20.3226 8.65448 20.5026 9.56542 20.5002 10.485ZM13.5512 3.46399C13.2364 3.15915 12.8831 2.89692 12.5002 2.68399V6.99999C12.5002 7.26521 12.6055 7.51956 12.793 7.7071C12.9806 7.89464 13.2349 7.99999 13.5002 7.99999H17.8162C17.6031 7.61718 17.3405 7.26414 17.0352 6.94999L13.5512 3.46399ZM18.5002 10.485C18.5002 10.32 18.4682 10.162 18.4532 9.99999H13.5002C12.7045 9.99999 11.9414 9.68392 11.3788 9.12131C10.8162 8.5587 10.5002 7.79564 10.5002 6.99999V2.04699C10.3382 2.03199 10.1792 1.99999 10.0152 1.99999H5.50015C4.7045 1.99999 3.94144 2.31606 3.37883 2.87867C2.81622 3.44128 2.50015 4.20434 2.50015 4.99999V19C2.50015 19.7956 2.81622 20.5587 3.37883 21.1213C3.94144 21.6839 4.7045 22 5.50015 22H15.5002C16.2958 22 17.0589 21.6839 17.6215 21.1213C18.1841 20.5587 18.5002 19.7956 18.5002 19V10.485Z" fill="#22BCFF"/>
</svg>
