<svg width="16" height="14" viewBox="0 0 16 14" fill="none" xmlns="http://www.w3.org/2000/svg">
<path d="M13 0H3C2.27106 0.00132174 1.57236 0.291477 1.05692 0.806916C0.541477 1.32236 0.251322 2.02106 0.25 2.75V11.25C0.25 12.765 1.485 14 3 14H13C14.515 14 15.75 12.765 15.75 11.25V2.75C15.75 1.235 14.515 0 13 0ZM14.25 6.16L12.11 4.02C11.825 3.735 11.365 3.725 11.07 4L7.38 7.43L5.51 5.56C5.225 5.275 4.765 5.265 4.47 5.54L1.75 8.065V2.75C1.75 2.41848 1.8817 2.10054 2.11612 1.86612C2.35054 1.6317 2.66848 1.5 3 1.5H13C13.3315 1.5 13.6495 1.6317 13.8839 1.86612C14.1183 2.10054 14.25 2.41848 14.25 2.75V6.16Z" fill="#FF3E4C"/>
</svg>
