<svg width="16" height="12" viewBox="0 0 16 12" fill="none" xmlns="http://www.w3.org/2000/svg">
<rect width="16" height="12" rx="2" fill="#FF3E4C"/>
<path d="M2.32342 7.63867V8.66994H1.25391V7.63867H2.32342Z" fill="#FCFEFF"/>
<path d="M3.89626 7.17325V8.66976H2.8623V4.4043H4.53769C5.04542 4.4043 5.43368 4.53053 5.69964 4.78161C5.83422 4.91351 5.93928 5.07232 6.00791 5.24762C6.07655 5.42291 6.1072 5.61072 6.09786 5.79868C6.10304 6.04667 6.04166 6.29155 5.92008 6.50794C5.79592 6.71949 5.61187 6.88978 5.39102 6.99735C5.12463 7.12293 4.83219 7.18369 4.53769 7.17467L3.89626 7.17325ZM5.04542 5.79868C5.04542 5.42041 4.83778 5.23127 4.42249 5.23127H3.89626V6.34198H4.42249C4.83778 6.34576 5.04542 6.16465 5.04542 5.79868Z" fill="#FCFEFF"/>
<path d="M10.1838 7.64213C10.0058 7.96466 9.73676 8.22804 9.41014 8.39963C9.04262 8.58729 8.63392 8.68041 8.22116 8.67055H6.60693V4.40509H8.22116C8.63423 4.39473 9.04352 4.4858 9.41298 4.67034C9.73871 4.83824 10.007 5.09895 10.1838 5.41932C10.3689 5.75943 10.462 6.14173 10.454 6.52861C10.4618 6.91682 10.3687 7.3004 10.1838 7.64213ZM9.07165 7.42793C9.18726 7.30957 9.27683 7.16846 9.33462 7.01359C9.39242 6.85873 9.41717 6.69356 9.40729 6.52861C9.41723 6.36387 9.39251 6.19886 9.3347 6.04422C9.2769 5.88957 9.18729 5.74872 9.07165 5.63068C8.81297 5.40429 8.47506 5.28906 8.13156 5.31009H7.64089V7.7471H8.13156C8.47478 7.7679 8.81243 7.65326 9.07165 7.42793Z" fill="#FCFEFF"/>
<path d="M13.829 4.4043V5.22562H12.0754V6.16041H13.4294V6.94485H12.0754V8.66976H11.04V4.4043H13.829Z" fill="#FCFEFF"/>
</svg>
