<svg width="25" height="24" viewBox="0 0 25 24" fill="none" xmlns="http://www.w3.org/2000/svg">
<path d="M24.2068 22.2937L18.2378 16.3247C19.8644 14.3353 20.6642 11.7968 20.4716 9.23426C20.2791 6.67173 19.109 4.28123 17.2034 2.55722C15.2977 0.833208 12.8024 -0.0924103 10.2334 -0.0281784C7.66447 0.0360534 5.21848 1.08522 3.40139 2.90231C1.5843 4.7194 0.53513 7.16539 0.470898 9.73434C0.406667 12.3033 1.33228 14.7987 3.0563 16.7043C4.78031 18.6099 7.17081 19.78 9.73334 19.9725C12.2959 20.1651 14.8344 19.3653 16.8238 17.7387L22.7928 23.7077C22.9814 23.8899 23.234 23.9907 23.4962 23.9884C23.7584 23.9861 24.0092 23.8809 24.1946 23.6955C24.38 23.5101 24.4852 23.2593 24.4875 22.9971C24.4897 22.7349 24.3889 22.4823 24.2068 22.2937ZM10.4998 18.0007C8.91752 18.0007 7.37081 17.5315 6.05521 16.6525C4.73962 15.7734 3.71424 14.524 3.10874 13.0622C2.50324 11.6004 2.34481 9.99182 2.65349 8.43998C2.96217 6.88813 3.7241 5.46266 4.84292 4.34384C5.96174 3.22502 7.3872 2.4631 8.93905 2.15442C10.4909 1.84573 12.0994 2.00416 13.5612 2.60966C15.0231 3.21516 16.2725 4.24054 17.1515 5.55614C18.0306 6.87173 18.4998 8.41845 18.4998 10.0007C18.4974 12.1217 17.6538 14.1551 16.154 15.6549C14.6542 17.1547 12.6208 17.9983 10.4998 18.0007Z" fill="#FCFEFF"/>
</svg>
