<svg width="20" height="20" viewBox="0 0 20 20" fill="none" xmlns="http://www.w3.org/2000/svg">
<path d="M9.99886 9.99999C10.6581 9.99999 11.3026 9.80449 11.8508 9.43822C12.3989 9.07195 12.8262 8.55136 13.0785 7.94227C13.3307 7.33318 13.3968 6.66296 13.2681 6.01636C13.1395 5.36975 12.8221 4.77581 12.3559 4.30964C11.8897 3.84346 11.2958 3.52599 10.6492 3.39737C10.0026 3.26876 9.33233 3.33477 8.72324 3.58706C8.11416 3.83935 7.59356 4.26659 7.22729 4.81476C6.86102 5.36292 6.66552 6.00739 6.66552 6.66666C6.66552 7.55071 7.01671 8.39856 7.64183 9.02368C8.26695 9.6488 9.1148 9.99999 9.99886 9.99999ZM9.99886 4.99999C10.3285 4.99999 10.6507 5.09774 10.9248 5.28088C11.1989 5.46401 11.4125 5.72431 11.5387 6.02885C11.6648 6.3334 11.6978 6.66851 11.6335 6.99181C11.5692 7.31511 11.4105 7.61208 11.1774 7.84517C10.9443 8.07826 10.6473 8.23699 10.324 8.3013C10.0007 8.36561 9.66559 8.3326 9.36105 8.20646C9.05651 8.08031 8.79621 7.86669 8.61307 7.59261C8.42994 7.31853 8.33219 6.99629 8.33219 6.66666C8.33219 6.22463 8.50778 5.80071 8.82034 5.48815C9.13291 5.17559 9.55683 4.99999 9.99886 4.99999ZM17.2155 7.63083L16.6164 7.43166C16.7242 6.49826 16.6335 5.55261 16.3502 4.65673C16.0669 3.76085 15.5975 2.93496 14.9726 2.23323C14.3478 1.53151 13.5816 0.969792 12.7245 0.58492C11.8673 0.200048 10.9385 0.000715272 9.99886 -7.62939e-06C9.04699 0.000359845 8.10625 0.204737 7.24004 0.599355C6.37382 0.993972 5.60224 1.56966 4.97729 2.28764C4.35234 3.00561 3.88853 3.8492 3.61711 4.76155C3.3457 5.6739 3.27298 6.63383 3.40386 7.57666C2.60638 7.72535 1.86896 8.10159 1.28052 8.65999C0.873168 9.04728 0.549331 9.51379 0.328922 10.0309C0.108512 10.5479 -0.00381133 11.1046 -0.00114376 11.6667V15.0625C0.000607567 15.9636 0.293683 16.84 0.834348 17.5609C1.37501 18.2818 2.13428 18.8085 2.99886 19.0625L5.39052 19.8125C5.79224 19.9375 6.21063 20.0007 6.63136 20C7.01301 19.9995 7.39285 19.9474 7.76052 19.845L12.5772 18.42C13.0063 18.3029 13.4589 18.3029 13.888 18.42L15.8772 19.0867C16.3674 19.206 16.8784 19.2125 17.3715 19.1056C17.8646 18.9987 18.327 18.7813 18.7239 18.4698C19.1208 18.1582 19.4417 17.7606 19.6626 17.3069C19.8834 16.8533 19.9984 16.3554 19.9989 15.8508V11.56C19.997 10.6978 19.7285 9.85736 19.2302 9.15378C18.7319 8.4502 18.0282 7.91795 17.2155 7.62999V7.63083ZM6.46386 3.13499C6.9274 2.66957 7.4783 2.30026 8.08493 2.04827C8.69155 1.79628 9.34197 1.66656 9.99886 1.66656C10.6557 1.66656 11.3062 1.79628 11.9128 2.04827C12.5194 2.30026 13.0703 2.66957 13.5339 3.13499C14.469 4.07594 14.9946 5.34817 14.9963 6.67477C14.9981 8.00137 14.4757 9.27496 13.543 10.2183L10.5822 13.0975C10.4277 13.249 10.2199 13.3339 10.0034 13.3339C9.78702 13.3339 9.57922 13.249 9.42469 13.0975L6.46386 10.2308C5.52675 9.28782 5.00078 8.01236 5.00078 6.68291C5.00078 5.35346 5.52675 4.078 6.46386 3.13499ZM18.3322 15.8508C18.3327 16.1032 18.2756 16.3524 18.1653 16.5794C18.055 16.8064 17.8943 17.0053 17.6955 17.1608C17.5077 17.3118 17.2889 17.4196 17.0547 17.4765C16.8205 17.5334 16.5767 17.538 16.3405 17.49L14.3864 16.8333C13.6472 16.621 12.8638 16.6164 12.1222 16.82L7.30219 18.2433C6.83909 18.3711 6.34898 18.3627 5.89052 18.2192L3.47886 17.4692C2.9569 17.3182 2.49799 17.002 2.17102 16.5681C1.84406 16.1341 1.66668 15.6058 1.66552 15.0625V11.6667C1.66365 11.3298 1.7307 10.9961 1.86254 10.6862C1.99439 10.3762 2.18824 10.0964 2.43219 9.86416C2.81407 9.50021 3.30054 9.26529 3.82302 9.19249C4.15894 10.0251 4.65917 10.7816 5.29386 11.4167L8.26636 14.2942C8.73095 14.7491 9.35529 15.0039 10.0055 15.0039C10.6558 15.0039 11.2801 14.7491 11.7447 14.2942L14.7139 11.4083C15.3786 10.7409 15.8937 9.93947 16.2247 9.05749L16.6722 9.20583C17.1575 9.37972 17.5773 9.69912 17.8744 10.1204C18.1715 10.5418 18.3314 11.0445 18.3322 11.56V15.8508Z" fill="#242A2D"/>
</svg>
