<svg width="329" height="46" viewBox="0 0 329 46" fill="none" xmlns="http://www.w3.org/2000/svg">
<path d="M8.0961 10H6.98723C3.12829 10 0 13.1283 0 16.9872V34C0 40.6274 5.37258 46 12 46H317C323.627 46 329 40.6274 329 34V16.4041C329 12.8672 326.133 10 322.596 10H321.943C320.399 10 318.939 10.706 317.981 11.9167L317.523 12.4945C315.586 14.9411 311.813 14.7427 310.143 12.1064C309.312 10.7949 307.868 10 306.315 10H303.084C301.441 10 299.882 9.27808 298.82 8.02581C296.587 5.39357 292.525 5.39357 290.292 8.02581L290.203 8.13036C289.197 9.31631 287.721 10 286.166 10C283.495 10 281.237 7.96721 280.906 5.31732C280.11 -1.04645 271.002 -1.77432 269.631 4.49079L269.435 5.38994C268.846 8.08155 266.462 10 263.707 10H260.699C258.289 10 256.217 11.7084 255.759 14.0742C254.754 19.2578 247.461 19.5918 245.987 14.5217L245.766 13.7642C245.118 11.5339 243.074 10 240.751 10H237.68C236.071 10 234.527 9.36832 233.379 8.24094C230.618 5.52858 226.066 6.01808 223.944 9.25553L222.429 11.5682C220.516 14.4874 216.306 14.6762 214.139 11.94C213.169 10.7146 211.691 10 210.128 10H208.458C205.181 10 202.172 8.09315 200.736 5.14694C197.675 -1.13473 188.824 -1.6602 185.189 4.30767L184.513 5.4186C182.78 8.26374 179.689 10 176.358 10H172.274C170.754 10 169.334 9.2473 168.481 7.99024C166.778 5.48185 163.153 5.28726 161.192 7.59897L160.701 8.1778C159.721 9.33366 158.281 10 156.766 10H155.208C153.259 10 151.475 11.0983 150.598 12.8393C148.375 17.2524 141.818 16.3199 140.913 11.4619L139.803 5.50181C138.776 -0.0108261 130.815 0.177685 130.05 5.73275C129.713 8.17822 127.623 10 125.155 10H120.832C119.524 10 118.281 10.5687 117.427 11.5582C115.632 13.6357 112.411 13.6357 110.617 11.5582C109.762 10.5687 108.519 10 107.212 10H103.516C100.358 10 97.3313 8.73718 95.1099 6.49281C90.4815 1.81655 82.9265 1.81655 78.298 6.49281L78.1767 6.61536C76.0329 8.78131 73.112 10 70.0645 10H64.0423C62.0322 10 60.3079 11.4337 59.9412 13.4101C59.0615 18.1498 52.1786 17.8673 51.6903 13.0714L50.8851 5.16241C50.2731 -0.849447 41.6979 -1.33496 40.4111 4.56938L38.7379 12.2471C37.8411 16.3621 32.118 16.7372 30.6917 12.7745C30.0926 11.1099 28.5136 10 26.7444 10H25.1082C23.4794 10 21.9157 9.36049 20.7538 8.21913L19.6256 7.111C17.4467 4.97066 13.8612 5.32689 12.1459 7.85412C11.235 9.19632 9.71823 10 8.0961 10Z" fill="url(#paint0_linear_1_918)" fill-opacity="0.3"/>
<defs>
<linearGradient id="paint0_linear_1_918" x1="164.5" y1="-28" x2="164.5" y2="46" gradientUnits="userSpaceOnUse">
<stop stop-color="#22BCFF"/>
<stop offset="1" stop-color="#22BCFF" stop-opacity="0"/>
</linearGradient>
</defs>
</svg>
