<svg width="75" height="84" viewBox="0 0 75 84" fill="none" xmlns="http://www.w3.org/2000/svg">
<rect x="7.50001" y="12" width="60" height="60" rx="30" fill="url(#paint0_linear_7_128)"/>
<g clip-path="url(#clip0_7_128)">
<path d="M47.5833 41.0833H38.4167V31.9167C38.4167 31.6736 38.3201 31.4404 38.1482 31.2685C37.9763 31.0966 37.7431 31 37.5 31V31C37.2569 31 37.0237 31.0966 36.8518 31.2685C36.6799 31.4404 36.5833 31.6736 36.5833 31.9167V41.0833H27.4167C27.1736 41.0833 26.9404 41.1799 26.7685 41.3518C26.5966 41.5237 26.5 41.7569 26.5 42V42C26.5 42.2431 26.5966 42.4763 26.7685 42.6482C26.9404 42.8201 27.1736 42.9167 27.4167 42.9167H36.5833V52.0833C36.5833 52.3264 36.6799 52.5596 36.8518 52.7315C37.0237 52.9034 37.2569 53 37.5 53C37.7431 53 37.9763 52.9034 38.1482 52.7315C38.3201 52.5596 38.4167 52.3264 38.4167 52.0833V42.9167H47.5833C47.8265 42.9167 48.0596 42.8201 48.2315 42.6482C48.4034 42.4763 48.5 42.2431 48.5 42C48.5 41.7569 48.4034 41.5237 48.2315 41.3518C48.0596 41.1799 47.8265 41.0833 47.5833 41.0833Z" fill="#FCFEFF"/>
</g>
<defs>
<linearGradient id="paint0_linear_7_128" x1="7.50001" y1="18.9231" x2="68.4964" y2="20.094" gradientUnits="userSpaceOnUse">
<stop stop-color="#56CCFF"/>
<stop offset="1" stop-color="#22BCFF"/>
</linearGradient>
<clipPath id="clip0_7_128">
<rect width="22" height="22" fill="white" transform="translate(26.5 31)"/>
</clipPath>
</defs>
</svg>
