<svg width="25" height="24" viewBox="0 0 25 24" fill="none" xmlns="http://www.w3.org/2000/svg">
<g clip-path="url(#clip0_7_133)">
<path d="M19.3 2H18.3V1C18.3 0.734784 18.1947 0.48043 18.0071 0.292893C17.8196 0.105357 17.5652 0 17.3 0C17.0348 0 16.7804 0.105357 16.5929 0.292893C16.4054 0.48043 16.3 0.734784 16.3 1V2H8.30001V1C8.30001 0.734784 8.19465 0.48043 8.00712 0.292893C7.81958 0.105357 7.56523 0 7.30001 0C7.03479 0 6.78044 0.105357 6.5929 0.292893C6.40537 0.48043 6.30001 0.734784 6.30001 1V2H5.30001C3.97442 2.00159 2.70357 2.52888 1.76623 3.46622C0.828893 4.40356 0.301599 5.67441 0.300011 7L0.300011 19C0.301599 20.3256 0.828893 21.5964 1.76623 22.5338C2.70357 23.4711 3.97442 23.9984 5.30001 24H19.3C20.6256 23.9984 21.8965 23.4711 22.8338 22.5338C23.7711 21.5964 24.2984 20.3256 24.3 19V7C24.2984 5.67441 23.7711 4.40356 22.8338 3.46622C21.8965 2.52888 20.6256 2.00159 19.3 2ZM2.30001 7C2.30001 6.20435 2.61608 5.44129 3.17869 4.87868C3.7413 4.31607 4.50436 4 5.30001 4H19.3C20.0957 4 20.8587 4.31607 21.4213 4.87868C21.9839 5.44129 22.3 6.20435 22.3 7V8H2.30001V7ZM19.3 22H5.30001C4.50436 22 3.7413 21.6839 3.17869 21.1213C2.61608 20.5587 2.30001 19.7956 2.30001 19V10H22.3V19C22.3 19.7956 21.9839 20.5587 21.4213 21.1213C20.8587 21.6839 20.0957 22 19.3 22Z" fill="#7B8D95"/>
<path d="M12.3 16.5C13.1284 16.5 13.8 15.8284 13.8 15C13.8 14.1716 13.1284 13.5 12.3 13.5C11.4716 13.5 10.8 14.1716 10.8 15C10.8 15.8284 11.4716 16.5 12.3 16.5Z" fill="#7B8D95"/>
<path d="M7.29985 16.5C8.12828 16.5 8.79985 15.8284 8.79985 15C8.79985 14.1716 8.12828 13.5 7.29985 13.5C6.47142 13.5 5.79985 14.1716 5.79985 15C5.79985 15.8284 6.47142 16.5 7.29985 16.5Z" fill="#7B8D95"/>
<path d="M17.3002 16.5C18.1286 16.5 18.8002 15.8284 18.8002 15C18.8002 14.1716 18.1286 13.5 17.3002 13.5C16.4717 13.5 15.8002 14.1716 15.8002 15C15.8002 15.8284 16.4717 16.5 17.3002 16.5Z" fill="#7B8D95"/>
</g>
<defs>
<clipPath id="clip0_7_133">
<rect width="24" height="24" fill="white" transform="translate(0.300011)"/>
</clipPath>
</defs>
</svg>
