<svg width="26" height="24" viewBox="0 0 26 24" fill="none" xmlns="http://www.w3.org/2000/svg">
<path fill-rule="evenodd" clip-rule="evenodd" d="M12.4137 0.312419C12.8292 -0.10414 13.5027 -0.10414 13.9182 0.312419L25.0884 11.5124C25.2879 11.7125 25.4 11.9838 25.4 12.2667V22.9333C25.4 23.5224 24.9237 24 24.3362 24H7.8468C7.25927 24 6.78297 23.5224 6.78297 22.9333V14.9333C6.78297 14.6504 6.89505 14.3791 7.09456 14.1791L15.9168 5.33333L13.166 2.57516L2.52765 13.2418V22.9333C2.52765 23.5224 2.05136 24 1.46382 24C0.876287 24 0.399994 23.5224 0.399994 22.9333V12.8011C0.399994 12.5182 0.512076 12.2458 0.711582 12.0458L12.4137 0.312419ZM17.4213 6.84183L8.91063 15.3752V21.8667H23.2723V12.7085L17.4213 6.84183Z" fill="#22BCFF"/>
</svg>
