<svg width="25" height="24" viewBox="0 0 25 24" fill="none" xmlns="http://www.w3.org/2000/svg">
<path d="M19.7 4H18.6C18.3679 2.87141 17.7538 1.85735 16.8613 1.12872C15.9687 0.40009 14.8522 0.00145452 13.7 0L11.7 0C10.5478 0.00145452 9.43132 0.40009 8.53875 1.12872C7.64618 1.85735 7.0321 2.87141 6.8 4H5.7C4.37441 4.00159 3.10356 4.52888 2.16622 5.46622C1.22889 6.40356 0.701592 7.67441 0.700005 9L0.700005 19C0.701592 20.3256 1.22889 21.5964 2.16622 22.5338C3.10356 23.4711 4.37441 23.9984 5.7 24H19.7C21.0256 23.9984 22.2964 23.4711 23.2338 22.5338C24.1711 21.5964 24.6984 20.3256 24.7 19V9C24.6984 7.67441 24.1711 6.40356 23.2338 5.46622C22.2964 4.52888 21.0256 4.00159 19.7 4ZM11.7 2H13.7C14.3183 2.00256 14.9206 2.19608 15.4247 2.55409C15.9288 2.91209 16.3099 3.41709 16.516 4H8.884C9.09009 3.41709 9.47124 2.91209 9.97531 2.55409C10.4794 2.19608 11.0817 2.00256 11.7 2ZM5.7 6H19.7C20.4957 6 21.2587 6.31607 21.8213 6.87868C22.3839 7.44129 22.7 8.20435 22.7 9V12H2.7V9C2.7 8.20435 3.01608 7.44129 3.57868 6.87868C4.14129 6.31607 4.90436 6 5.7 6ZM19.7 22H5.7C4.90436 22 4.14129 21.6839 3.57868 21.1213C3.01608 20.5587 2.7 19.7956 2.7 19V14H11.7V15C11.7 15.2652 11.8054 15.5196 11.9929 15.7071C12.1804 15.8946 12.4348 16 12.7 16C12.9652 16 13.2196 15.8946 13.4071 15.7071C13.5946 15.5196 13.7 15.2652 13.7 15V14H22.7V19C22.7 19.7956 22.3839 20.5587 21.8213 21.1213C21.2587 21.6839 20.4957 22 19.7 22Z" fill="#7B8D95"/>
</svg>
