<svg width="18" height="20" viewBox="0 0 18 20" fill="none" xmlns="http://www.w3.org/2000/svg">
<path d="M8.96492 20.0065L8.38402 19.5086C7.5832 18.838 0.590744 12.7991 0.590744 8.38172C0.590744 3.7568 4.34 0.00753784 8.96492 0.00753784C13.5898 0.00753784 17.3391 3.7568 17.3391 8.38172C17.3391 12.7991 10.3466 18.838 9.54914 19.5119L8.96492 20.0065ZM8.96492 1.81828C5.34176 1.82238 2.40563 4.75852 2.40153 8.38168C2.40153 11.1568 6.70356 15.5899 8.96492 17.6189C11.2263 15.5891 15.5283 11.1534 15.5283 8.38168C15.5242 4.75852 12.5881 1.82242 8.96492 1.81828Z" fill="#464646"/>
<path d="M8.96502 11.7009C7.13174 11.7009 5.64557 10.2147 5.64557 8.38143C5.64557 6.54815 7.13174 5.06198 8.96502 5.06198C10.7983 5.06198 12.2845 6.54815 12.2845 8.38143C12.2845 10.2147 10.7983 11.7009 8.96502 11.7009ZM8.96502 6.72167C8.04838 6.72167 7.3053 7.46475 7.3053 8.3814C7.3053 9.29804 8.04838 10.0411 8.96502 10.0411C9.88166 10.0411 10.6247 9.29804 10.6247 8.3814C10.6247 7.46475 9.8817 6.72167 8.96502 6.72167Z" fill="#464646"/>
</svg>
