<svg width="36" height="36" viewBox="0 0 36 36" fill="none" xmlns="http://www.w3.org/2000/svg">
<path d="M27.1667 16.6667H8.83333C8.3731 16.6667 8 17.1144 8 17.6667C8 18.2189 8.3731 18.6667 8.83333 18.6667H27.1667C27.6269 18.6667 28 18.2189 28 17.6667C28 17.1144 27.6269 16.6667 27.1667 16.6667Z" fill="#242A2D"/>
<path d="M27.1667 9.66666H8.83333C8.3731 9.66666 8 10.1144 8 10.6667C8 11.2189 8.3731 11.6667 8.83333 11.6667H27.1667C27.6269 11.6667 28 11.2189 28 10.6667C28 10.1144 27.6269 9.66666 27.1667 9.66666Z" fill="#242A2D"/>
<path d="M27.1667 23.6667H8.83333C8.3731 23.6667 8 24.1144 8 24.6667C8 25.2189 8.3731 25.6667 8.83333 25.6667H27.1667C27.6269 25.6667 28 25.2189 28 24.6667C28 24.1144 27.6269 23.6667 27.1667 23.6667Z" fill="#242A2D"/>
</svg>
