<svg width="25" height="24" viewBox="0 0 25 24" fill="none" xmlns="http://www.w3.org/2000/svg">
<g clip-path="url(#clip0_7_140)">
<path d="M24.0998 11.2472C23.9552 8.90722 23.129 6.66071 21.723 4.78462C20.3171 2.90854 18.3928 1.48489 16.1876 0.689192C13.9823 -0.106505 11.5923 -0.239469 9.3124 0.306693C7.03246 0.852855 4.96218 2.05427 3.35679 3.76282C1.7514 5.47137 0.681078 7.61236 0.27778 9.92186C-0.125519 12.2314 0.155834 14.6084 1.08715 16.7599C2.01847 18.9114 3.55905 20.7434 5.51895 22.0299C7.47885 23.3165 9.77239 24.0014 12.1168 24.0002H19.0998C20.4255 23.9989 21.6965 23.4717 22.6339 22.5343C23.5713 21.5969 24.0985 20.3259 24.0998 19.0002V11.2472ZM22.0998 19.0002C22.0998 19.7958 21.7838 20.5589 21.2212 21.1215C20.6586 21.6841 19.8955 22.0002 19.0998 22.0002H12.1168C10.7058 21.9996 9.31068 21.7015 8.02253 21.1255C6.73439 20.5495 5.58211 19.7084 4.64084 18.6572C3.69501 17.6065 2.98477 16.3657 2.55773 15.018C2.1307 13.6703 1.99674 12.2469 2.16484 10.8432C2.43027 8.62914 3.42503 6.56639 4.99228 4.98012C6.55953 3.39386 8.61014 2.37431 10.8208 2.0822C11.2521 2.02815 11.6862 2.00076 12.1208 2.0002C14.4513 1.99384 16.7096 2.8081 18.4998 4.3002C19.5454 5.16914 20.4035 6.24135 21.0224 7.45183C21.6412 8.6623 22.0077 9.98584 22.0998 11.3422V19.0002Z" fill="#7B8D95"/>
<path d="M8.09985 8.99984H12.0999C12.3651 8.99984 12.6194 8.89449 12.807 8.70695C12.9945 8.51941 13.0999 8.26506 13.0999 7.99985C13.0999 7.73463 12.9945 7.48028 12.807 7.29274C12.6194 7.1052 12.3651 6.99985 12.0999 6.99985H8.09985C7.83464 6.99985 7.58028 7.1052 7.39275 7.29274C7.20521 7.48028 7.09985 7.73463 7.09985 7.99985C7.09985 8.26506 7.20521 8.51941 7.39275 8.70695C7.58028 8.89449 7.83464 8.99984 8.09985 8.99984Z" fill="#7B8D95"/>
<path d="M16.0999 11.0002H8.09985C7.83464 11.0002 7.58028 11.1055 7.39275 11.293C7.20521 11.4806 7.09985 11.7349 7.09985 12.0002C7.09985 12.2654 7.20521 12.5197 7.39275 12.7073C7.58028 12.8948 7.83464 13.0002 8.09985 13.0002H16.0999C16.3651 13.0002 16.6194 12.8948 16.807 12.7073C16.9945 12.5197 17.0999 12.2654 17.0999 12.0002C17.0999 11.7349 16.9945 11.4806 16.807 11.293C16.6194 11.1055 16.3651 11.0002 16.0999 11.0002Z" fill="#7B8D95"/>
<path d="M16.0999 15H8.09985C7.83464 15 7.58028 15.1054 7.39275 15.2929C7.20521 15.4804 7.09985 15.7348 7.09985 16C7.09985 16.2652 7.20521 16.5196 7.39275 16.7071C7.58028 16.8947 7.83464 17 8.09985 17H16.0999C16.3651 17 16.6194 16.8947 16.807 16.7071C16.9945 16.5196 17.0999 16.2652 17.0999 16C17.0999 15.7348 16.9945 15.4804 16.807 15.2929C16.6194 15.1054 16.3651 15 16.0999 15Z" fill="#7B8D95"/>
</g>
<defs>
<clipPath id="clip0_7_140">
<rect width="24" height="24" fill="white" transform="translate(0.100006)"/>
</clipPath>
</defs>
</svg>
