<svg width="36" height="36" viewBox="0 0 36 36" fill="none" xmlns="http://www.w3.org/2000/svg">
<g clip-path="url(#clip0_7_83)">
<path d="M27.0121 19.3818L25.4108 13.6858C24.9414 12.0171 23.9213 10.5514 22.5126 9.52166C21.1039 8.49194 19.3875 7.95727 17.6362 8.00267C15.8849 8.04806 14.1992 8.67091 12.847 9.7722C11.4948 10.8735 10.5538 12.39 10.1735 14.0808L8.93374 19.5926C8.7968 20.2017 8.79996 20.8333 8.94301 21.441C9.08605 22.0487 9.36532 22.6168 9.76019 23.1035C10.1551 23.5902 10.6555 23.983 11.2244 24.2529C11.7934 24.5228 12.4164 24.6629 13.0475 24.6629H13.9864C14.1799 25.6047 14.6967 26.4514 15.4493 27.0596C16.202 27.6678 17.1441 28 18.1162 28C19.0883 28 20.0305 27.6678 20.7831 27.0596C21.5357 26.4514 22.0526 25.6047 22.246 24.6629H22.9523C23.6019 24.6629 24.2428 24.5145 24.8248 24.2291C25.4068 23.9438 25.9142 23.5293 26.3074 23.0179C26.7005 22.5066 26.9688 21.9124 27.0912 21.2816C27.2136 20.6509 27.1868 20.0007 27.013 19.3818H27.0121ZM18.1162 26.3293C17.5951 26.3272 17.0875 26.166 16.6626 25.8677C16.2378 25.5694 15.9165 25.1486 15.7428 24.6629H20.4896C20.3159 25.1486 19.9947 25.5694 19.5698 25.8677C19.145 26.166 18.6373 26.3272 18.1162 26.3293ZM24.9649 22.009C24.7301 22.317 24.4258 22.5667 24.0763 22.7381C23.7267 22.9095 23.3416 22.9979 22.9514 22.9964H13.0475C12.6689 22.9963 12.2952 22.9122 11.9538 22.7502C11.6125 22.5883 11.3123 22.3526 11.0755 22.0606C10.8386 21.7686 10.6711 21.4277 10.5853 21.0632C10.4995 20.6986 10.4976 20.3196 10.5798 19.9542L11.8187 14.4415C12.1174 13.1135 12.8565 11.9223 13.9185 11.0573C14.9806 10.1923 16.3047 9.70306 17.6803 9.66743C19.0559 9.63181 20.4041 10.0518 21.5105 10.8607C22.6169 11.6695 23.4181 12.8209 23.7867 14.1316L25.388 19.8276C25.4938 20.1987 25.5107 20.5891 25.4372 20.9677C25.3638 21.3464 25.2021 21.7029 24.9649 22.009Z" fill="#242A2D"/>
<rect x="17" y="8" width="11" height="11" rx="5.5" fill="#22BCFF"/>
</g>
<defs>
<clipPath id="clip0_7_83">
<rect width="20" height="20" fill="white" transform="translate(8 8)"/>
</clipPath>
</defs>
</svg>
